<!DOCTYPE svg PUBLIC "-//W3C//DTD SVG 1.1//EN" "http://www.w3.org/Graphics/SVG/1.1/DTD/svg11.dtd">

<!-- Uploaded to: SVG Repo, www.svgrepo.com, Transformed by: SVG Repo Mixer Tools -->
<svg fill="#c20000" width="40px" height="40px" viewBox="-2.4 -2.4 28.80 28.80" xmlns="http://www.w3.org/2000/svg" data-name="Layer 1" stroke="#c20000" transform="rotate(0)">

<g id="SVGRepo_bgCarrier" stroke-width="0" transform="translate(0,0), scale(1)">

<rect x="-2.4" y="-2.4" width="28.80" height="28.80" rx="14.4" fill="#00000080" strokewidth="0"/>

</g>

<g id="SVGRepo_tracerCarrier" stroke-linecap="round" stroke-linejoin="round" stroke="#CCCCCC" stroke-width="0.192"/>

<g id="SVGRepo_iconCarrier">

<path d="M18,5h1V6a1,1,0,0,0,2,0V5h1a1,1,0,0,0,0-2H21V2a1,1,0,0,0-2,0V3H18a1,1,0,0,0,0,2ZM7,7V17a1,1,0,0,0,2,0V7A1,1,0,0,0,7,7ZM21.6,9a1,1,0,0,0-.78,1.18,9,9,0,1,1-7-7,1,1,0,1,0,.4-2A10.8,10.8,0,0,0,12,1,11,11,0,1,0,23,12a10.8,10.8,0,0,0-.22-2.2A1,1,0,0,0,21.6,9ZM11,9v1a3,3,0,0,0,.78,2A3,3,0,0,0,11,14v1a3,3,0,0,0,3,3h1a3,3,0,0,0,3-3V14a3,3,0,0,0-.78-2A3,3,0,0,0,18,10V9a3,3,0,0,0-3-3H14A3,3,0,0,0,11,9Zm5,6a1,1,0,0,1-1,1H14a1,1,0,0,1-1-1V14a1,1,0,0,1,1-1h1a1,1,0,0,1,1,1Zm0-6v1a1,1,0,0,1-1,1H14a1,1,0,0,1-1-1V9a1,1,0,0,1,1-1h1A1,1,0,0,1,16,9Z"/>

</g>

</svg>