<svg width="65" height="64" viewBox="0 0 65 64" fill="none" xmlns="http://www.w3.org/2000/svg">
<path fill-rule="evenodd" clip-rule="evenodd" d="M55.1086 9.39347C42.6028 -3.11368 22.3398 -3.13382 9.8582 9.34916C-2.63147 21.8442 -2.61939 42.1014 9.89445 54.6085C22.4002 67.1157 42.6672 67.1318 55.1448 54.6488C67.6305 42.1658 67.6184 21.9006 55.1086 9.39347ZM38.986 45.4608L32.1874 38.6614L25.3887 45.4608C22.6137 48.2361 20.5274 50.653 17.2167 47.3459C13.914 44.0389 16.3185 41.9524 19.1056 39.173L25.9043 32.3776L19.1056 25.5783C16.3266 22.8029 13.914 20.7164 17.2167 17.4053C20.5274 14.1023 22.6137 16.5151 25.3887 19.2945L32.1874 26.0858L38.986 19.2945C41.765 16.5191 43.8393 14.0983 47.15 17.4053C50.4607 20.7164 48.0482 22.8029 45.2691 25.5783L38.4705 32.3736L45.2691 39.169C48.0441 41.9524 50.4607 44.0389 47.15 47.3459C43.8473 50.653 41.765 48.2361 38.986 45.4608Z" fill="#EB5757"/>
</svg>
