<svg width="36" height="36" viewBox="0 0 36 36" fill="none" xmlns="http://www.w3.org/2000/svg">
<circle cx="18" cy="18" r="18" fill="white"/>
<path d="M11.7236 18.1664L18.0147 24.7525L24.3058 18.1664C24.862 17.5841 25.1744 16.7943 25.1744 15.9709C25.1744 15.1474 24.862 14.3576 24.3058 13.7753C24.0303 13.487 23.7034 13.2583 23.3436 13.1022C22.9837 12.9462 22.598 12.8659 22.2086 12.8659C21.422 12.8659 20.6676 13.193 20.1114 13.7753L18.0147 15.9703L15.918 13.7764C15.3603 13.2019 14.6085 12.8813 13.8261 12.8846C13.0438 12.8878 12.2943 13.2146 11.7411 13.7936C11.1878 14.3727 10.8755 15.1572 10.8722 15.9762C10.869 16.7953 11.1749 17.5825 11.7236 18.1664ZM17.3158 12.3109L18.0147 13.0426L18.7136 12.3109C19.1718 11.827 19.7168 11.4426 20.3174 11.1797C20.9179 10.9169 21.5621 10.7808 22.213 10.7793C22.8639 10.7778 23.5087 10.9109 24.1104 11.171C24.712 11.4311 25.2586 11.813 25.7189 12.2949C26.1792 12.7767 26.544 13.349 26.7924 13.9788C27.0408 14.6087 27.168 15.2837 27.1666 15.9651C27.1651 16.6466 27.0352 17.321 26.7841 17.9497C26.533 18.5784 26.1658 19.149 25.7036 19.6287L18.7145 26.9465C18.6227 27.0427 18.5137 27.119 18.3937 27.1711C18.2737 27.2232 18.1451 27.25 18.0152 27.25C17.8852 27.25 17.7566 27.2232 17.6366 27.1711C17.5166 27.119 17.4076 27.0427 17.3158 26.9465L10.3258 19.6297C9.8572 19.1516 9.484 18.5807 9.22781 17.9504C8.97163 17.32 8.83755 16.6427 8.83335 15.9576C8.82916 15.2726 8.95494 14.5935 9.20339 13.9598C9.45184 13.3261 9.81803 12.7503 10.2807 12.2658C10.7434 11.7814 11.2933 11.398 11.8986 11.1378C12.5039 10.8776 13.1526 10.7458 13.8069 10.7501C14.4613 10.7544 15.1083 10.8947 15.7105 11.1628C16.3126 11.4309 16.8579 11.8215 17.3148 12.312L17.3158 12.3109Z" fill="#F3BE00"/>
</svg>
