<svg width="27" height="26" viewBox="0 0 27 26" fill="none" xmlns="http://www.w3.org/2000/svg">
<g filter="url(#filter0_b_3_1217)">
<path d="M26.0462 13.1779C26.0462 20.06 20.2959 25.6386 13.2022 25.6386C6.10843 25.6386 0.358154 20.06 0.358154 13.1779C0.358154 6.29708 6.10843 0.717163 13.2022 0.717163C20.2959 0.717163 26.0462 6.29708 26.0462 13.1779Z" fill="url(#paint0_linear_3_1217)"/>
<path d="M13.2022 25.7865C20.3734 25.7865 26.1941 20.1458 26.1941 13.1779C26.1941 6.21124 20.3734 0.569314 13.2022 0.569314C6.03102 0.569314 0.210306 6.21124 0.210306 13.1779C0.210306 20.1458 6.03103 25.7865 13.2022 25.7865Z" stroke="url(#paint1_linear_3_1217)" stroke-width="0.295697" stroke-linecap="round" stroke-linejoin="round"/>
</g>
<g filter="url(#filter1_b_3_1217)">
<path d="M18.3407 13.1843C18.3407 13.4992 18.2385 13.8154 18.0342 14.0685C17.9959 14.1182 17.8171 14.3229 17.6766 14.4561L17.6 14.5288C16.5272 15.6323 13.858 17.2917 12.5043 17.8234C12.5043 17.8355 11.6997 18.1517 11.3166 18.1626H11.2655C10.678 18.1626 10.1289 17.8488 9.84792 17.3401C9.69467 17.0603 9.55419 16.2488 9.54142 16.2379C9.42648 15.5099 9.34985 14.3956 9.34985 13.1722C9.34985 11.8895 9.42648 10.7255 9.56696 10.0108C9.56696 9.99873 9.70744 9.34466 9.79684 9.12663C9.93732 8.81292 10.1927 8.54523 10.512 8.37566C10.7674 8.25574 11.0356 8.19397 11.3166 8.19397C11.6103 8.20729 12.1595 8.38777 12.3766 8.47256C13.807 9.00551 16.54 10.7497 17.5872 11.8156C17.766 11.9852 17.9575 12.1923 18.0086 12.2395C18.2257 12.506 18.3407 12.8331 18.3407 13.1843Z" fill="url(#paint2_linear_3_1217)"/>
<path d="M17.9873 14.0324L17.9882 14.0314C18.1834 13.7895 18.2815 13.4867 18.2815 13.1843C18.2815 12.8477 18.172 12.5351 17.9653 12.2799C17.9438 12.2597 17.9042 12.2188 17.8553 12.1682C17.8389 12.1513 17.8215 12.1333 17.8034 12.1147C17.7269 12.0359 17.635 11.9424 17.5465 11.8585L17.545 11.8571L17.545 11.8571C17.0261 11.3289 16.0856 10.6293 15.0937 9.99403C14.1019 9.35888 13.0652 8.79225 12.3559 8.52797L12.3551 8.52765L12.3551 8.52764C12.2484 8.48597 12.0586 8.42024 11.8591 8.36334C11.659 8.30624 11.4546 8.25967 11.3152 8.25311C11.0442 8.25331 10.7855 8.31282 10.5385 8.42857C10.231 8.59222 9.98589 8.84973 9.85121 9.14993C9.80858 9.2543 9.75228 9.46706 9.70587 9.6598C9.68283 9.7555 9.66257 9.84482 9.64808 9.9109C9.64083 9.94396 9.63505 9.9711 9.63109 9.99026L9.62665 10.0124L9.6261 10.0154V10.0225L9.62499 10.0223C9.48563 10.7312 9.40899 11.8907 9.40899 13.1722C9.40899 14.3896 9.48502 15.4972 9.59868 16.2213C9.59906 16.2238 9.59945 16.2262 9.59984 16.2287L17.9873 14.0324ZM17.9873 14.0324C17.951 14.0796 17.7742 14.282 17.6359 14.4132L17.5593 14.4859L17.5592 14.4859L17.5576 14.4876C17.0261 15.0343 16.0953 15.722 15.1257 16.3406C14.1564 16.959 13.1544 17.5045 12.4827 17.7684L12.4452 17.7831V17.7869C12.4234 17.7963 12.3913 17.8093 12.3513 17.8248C12.2707 17.856 12.1592 17.8966 12.0356 17.9373C11.7864 18.0192 11.4976 18.098 11.3157 18.1034M17.9873 14.0324L11.3157 18.1034M11.3157 18.1034H11.2655C10.6988 18.1034 10.1699 17.8007 9.89977 17.3117L11.3157 18.1034Z" stroke="url(#paint3_linear_3_1217)" stroke-width="0.118279"/>
</g>
<defs>
<filter id="filter0_b_3_1217" x="-1.3598" y="-1.0008" width="29.1241" height="28.3574" filterUnits="userSpaceOnUse" color-interpolation-filters="sRGB">
<feFlood flood-opacity="0" result="BackgroundImageFix"/>
<feGaussianBlur in="BackgroundImageFix" stdDeviation="0.711152"/>
<feComposite in2="SourceAlpha" operator="in" result="effect1_backgroundBlur_3_1217"/>
<feBlend mode="normal" in="SourceGraphic" in2="effect1_backgroundBlur_3_1217" result="shape"/>
</filter>
<filter id="filter1_b_3_1217" x="4.91439" y="3.75851" width="17.8616" height="18.8395" filterUnits="userSpaceOnUse" color-interpolation-filters="sRGB">
<feFlood flood-opacity="0" result="BackgroundImageFix"/>
<feGaussianBlur in="BackgroundImageFix" stdDeviation="2.21773"/>
<feComposite in2="SourceAlpha" operator="in" result="effect1_backgroundBlur_3_1217"/>
<feBlend mode="normal" in="SourceGraphic" in2="effect1_backgroundBlur_3_1217" result="shape"/>
</filter>
<linearGradient id="paint0_linear_3_1217" x1="15.0933" y1="14.8467" x2="-7.21208" y2="26.0257" gradientUnits="userSpaceOnUse">
<stop stop-color="#FF8F71"/>
<stop offset="1" stop-color="#EF2D1A"/>
</linearGradient>
<linearGradient id="paint1_linear_3_1217" x1="4.44728" y1="3.62055" x2="20.2365" y2="23.7774" gradientUnits="userSpaceOnUse">
<stop stop-color="white" stop-opacity="0.25"/>
<stop offset="1" stop-color="white" stop-opacity="0"/>
</linearGradient>
<linearGradient id="paint2_linear_3_1217" x1="17.7032" y1="9.9941" x2="7.68633" y2="10.2887" gradientUnits="userSpaceOnUse">
<stop stop-color="white"/>
<stop offset="1" stop-color="white" stop-opacity="0.2"/>
</linearGradient>
<linearGradient id="paint3_linear_3_1217" x1="10.781" y1="9.35532" x2="17.2464" y2="16.5774" gradientUnits="userSpaceOnUse">
<stop stop-color="white" stop-opacity="0.25"/>
<stop offset="1" stop-color="white" stop-opacity="0"/>
</linearGradient>
</defs>
</svg>
