<svg width="43" height="46" viewBox="0 0 43 46" fill="none" xmlns="http://www.w3.org/2000/svg">
<g filter="url(#filter0_bd_1_1591)">
<path d="M27.8005 18.016C27.8005 18.8247 27.546 19.6366 27.0369 20.2867C26.9414 20.4142 26.496 20.9399 26.146 21.2821L25.9551 21.4687C23.2823 24.3025 16.6323 28.5639 13.2596 29.9295C13.2596 29.9606 11.2551 30.7724 10.3005 30.8004H10.1732C8.7096 30.8004 7.34142 29.9948 6.64142 28.6884C6.2596 27.9698 5.9096 25.8857 5.87779 25.8577C5.59142 23.9883 5.40051 21.1266 5.40051 17.9849C5.40051 14.6908 5.59142 11.7015 5.94142 9.8663C5.94142 9.83519 6.29142 8.15548 6.51415 7.59558C6.86415 6.78994 7.50051 6.10251 8.29597 5.66703C8.93233 5.35908 9.60051 5.20044 10.3005 5.20044C11.0323 5.23466 12.4005 5.69813 12.9414 5.91587C16.5051 7.28452 23.3142 11.7637 25.9232 14.501C26.3687 14.9365 26.846 15.4684 26.9732 15.5897C27.5142 16.2741 27.8005 17.1139 27.8005 18.016Z" fill="url(#paint0_linear_1_1591)"/>
<path d="M26.8794 20.1634L26.8794 20.1634L26.8768 20.1669C26.7877 20.2859 26.349 20.8039 26.0062 21.1391L25.8153 21.3257L25.8151 21.3256L25.8096 21.3315C24.4895 22.731 22.1746 24.4946 19.7599 26.0826C17.3462 27.6699 14.8532 29.0685 13.1845 29.7441L13.0596 29.7947V29.8054C13.0082 29.8277 12.9398 29.8561 12.8574 29.889C12.6576 29.9687 12.3805 30.0727 12.0738 30.1767C11.4526 30.3873 10.7411 30.5867 10.2975 30.6004H10.1732C8.78269 30.6004 7.48273 29.8348 6.81786 28.5942C6.64188 28.2628 6.46395 27.5901 6.32341 26.9699C6.25431 26.6649 6.19601 26.3812 6.15274 26.1705L6.15252 26.1695C6.13111 26.0652 6.11311 25.9776 6.09945 25.9152C6.09267 25.8842 6.08642 25.8569 6.081 25.836C6.07857 25.8267 6.07555 25.8156 6.07203 25.8049C5.78962 23.9483 5.60051 21.1078 5.60051 17.9849C5.60051 14.6946 5.79145 11.7203 6.13788 9.90376L6.14142 9.8852V9.88185L6.14207 9.87821C6.14443 9.86544 6.14809 9.8466 6.15301 9.822C6.16281 9.77302 6.17718 9.70349 6.19521 9.61873C6.23127 9.44925 6.28169 9.22018 6.33902 8.97473C6.45471 8.47943 6.59416 7.93693 6.69885 7.67237C7.03009 6.91178 7.63257 6.25947 8.38761 5.84487C8.99511 5.55167 9.63053 5.40115 10.2958 5.40044C10.6357 5.41718 11.1385 5.53486 11.6361 5.68121C12.1315 5.82686 12.6026 5.99508 12.8667 6.1014L12.8667 6.10143L12.8697 6.10257C14.6313 6.77911 17.2102 8.23168 19.6801 9.86213C22.1504 11.4928 24.4898 13.287 25.7785 14.639L25.7784 14.6391L25.7834 14.6441C26.0031 14.8588 26.2314 15.0982 26.422 15.3004C26.4666 15.3477 26.5096 15.3935 26.5501 15.4366C26.6706 15.565 26.7694 15.6702 26.8245 15.7241C27.3312 16.3699 27.6005 17.1618 27.6005 18.016C27.6005 18.7838 27.3587 19.5514 26.8794 20.1634ZM6.13983 9.89079L6.13984 9.89071C6.13956 9.89292 6.13935 9.89424 6.13931 9.89432C6.13928 9.89441 6.13942 9.89333 6.13983 9.89079Z" stroke="url(#paint1_linear_1_1591)" stroke-width="0.4"/>
</g>
<defs>
<filter id="filter0_bd_1_1591" x="-9.59949" y="-9.79956" width="52.4" height="55.6" filterUnits="userSpaceOnUse" color-interpolation-filters="sRGB">
<feFlood flood-opacity="0" result="BackgroundImageFix"/>
<feGaussianBlur in="BackgroundImageFix" stdDeviation="7.5"/>
<feComposite in2="SourceAlpha" operator="in" result="effect1_backgroundBlur_1_1591"/>
<feColorMatrix in="SourceAlpha" type="matrix" values="0 0 0 0 0 0 0 0 0 0 0 0 0 0 0 0 0 0 127 0" result="hardAlpha"/>
<feOffset dx="5" dy="5"/>
<feGaussianBlur stdDeviation="5"/>
<feColorMatrix type="matrix" values="0 0 0 0 0.995833 0 0 0 0 0.338256 0 0 0 0 0.273854 0 0 0 0.15 0"/>
<feBlend mode="normal" in2="effect1_backgroundBlur_1_1591" result="effect2_dropShadow_1_1591"/>
<feBlend mode="normal" in="SourceGraphic" in2="effect2_dropShadow_1_1591" result="shape"/>
</filter>
<linearGradient id="paint0_linear_1_1591" x1="18.2496" y1="19.7147" x2="-2.35651" y2="28.4815" gradientUnits="userSpaceOnUse">
<stop stop-color="#FF8F71"/>
<stop offset="1" stop-color="#EF2D1A"/>
</linearGradient>
<linearGradient id="paint1_linear_1_1591" x1="8.96623" y1="8.18287" x2="25.6175" y2="26.2281" gradientUnits="userSpaceOnUse">
<stop stop-color="white" stop-opacity="0.25"/>
<stop offset="1" stop-color="white" stop-opacity="0"/>
</linearGradient>
</defs>
</svg>
