<svg width="24" height="24" viewBox="0 0 18 18" fill="none" xmlns="http://www.w3.org/2000/svg">
<circle cx="9.19402" cy="9.57647" r="4.32512" fill="url(#paint0_linear_3_1133)"/>
<g filter="url(#filter0_b_3_1133)">
<path d="M17.2853 6.75327L12.0989 5.99829L9.78048 1.29035C9.71716 1.16145 9.61298 1.0571 9.48429 0.993674C9.16155 0.834083 8.76936 0.967076 8.60798 1.29035L6.28955 5.99829L1.1032 6.75327C0.960211 6.77374 0.829479 6.84125 0.729388 6.94356C0.608384 7.06813 0.541705 7.23573 0.544003 7.40952C0.546301 7.58332 0.617388 7.74909 0.741644 7.87041L4.49404 11.5349L3.60752 16.7093C3.58673 16.8297 3.60003 16.9535 3.6459 17.0666C3.69178 17.1798 3.7684 17.2779 3.86708 17.3497C3.96575 17.4214 4.08254 17.4641 4.20418 17.4728C4.32583 17.4815 4.44747 17.4559 4.55532 17.3988L9.19423 14.9558L13.8331 17.3988C13.9598 17.4663 14.1069 17.4888 14.2478 17.4643C14.6032 17.4029 14.8422 17.0653 14.7809 16.7093L13.8944 11.5349L17.6468 7.87041C17.749 7.77016 17.8164 7.63921 17.8368 7.49599C17.8919 7.13793 17.6427 6.80647 17.2853 6.75327Z" fill="url(#paint1_linear_3_1133)"/>
<path d="M11.6139 6.23713L11.7396 6.49231L12.021 6.53329L17.2057 7.28803C17.2058 7.28805 17.206 7.28807 17.2062 7.2881C17.2725 7.29822 17.3111 7.35743 17.3025 7.41368L17.3024 7.41368L17.3016 7.41965C17.2982 7.44304 17.2872 7.46572 17.2684 7.48427C17.2683 7.48438 17.2682 7.48448 17.2681 7.48459L13.5167 11.1481L13.3136 11.3464L13.3616 11.6262L14.2481 16.8006L14.2481 16.801C14.2587 16.8623 14.2177 16.9208 14.1558 16.9315L14.155 16.9317C14.1302 16.936 14.1056 16.9314 14.0875 16.9217L14.0851 16.9205L9.44615 14.4775L9.19423 14.3448L8.94232 14.4775L4.3034 16.9205L4.30257 16.9209C4.28412 16.9306 4.26339 16.935 4.2427 16.9335C4.222 16.932 4.20206 16.9248 4.18513 16.9125C4.16819 16.9001 4.15492 16.8832 4.14695 16.8636C4.13897 16.8439 4.13665 16.8223 4.14027 16.8013L4.14039 16.8006L5.02691 11.6262L5.07485 11.3464L4.87177 11.1481L1.11938 7.48362L1.11934 7.48358C1.0976 7.46236 1.085 7.43317 1.0846 7.40238C1.08419 7.37191 1.09577 7.34268 1.11653 7.32094C1.13498 7.30238 1.1572 7.29169 1.17978 7.28847L1.18108 7.28828L6.36743 6.53329L6.6489 6.49231L6.77457 6.23713L9.09171 1.53181C9.09184 1.53156 9.09196 1.5313 9.09209 1.53105C9.12173 1.4727 9.19118 1.45186 9.24465 1.4783L9.24528 1.47861C9.26681 1.48922 9.28447 1.50682 9.29523 1.52873L9.29546 1.5292L11.6139 6.23713Z" stroke="url(#paint2_linear_3_1133)" stroke-width="1.08128"/>
</g>
<defs>
<filter id="filter0_b_3_1133" x="-4.65702" y="-4.27481" width="27.7025" height="26.9502" filterUnits="userSpaceOnUse" color-interpolation-filters="sRGB">
<feFlood flood-opacity="0" result="BackgroundImageFix"/>
<feGaussianBlur in="BackgroundImageFix" stdDeviation="2.60048"/>
<feComposite in2="SourceAlpha" operator="in" result="effect1_backgroundBlur_3_1133"/>
<feBlend mode="normal" in="SourceGraphic" in2="effect1_backgroundBlur_3_1133" result="shape"/>
</filter>
<linearGradient id="paint0_linear_3_1133" x1="4.52485" y1="14.4258" x2="15.1587" y2="8.54236" gradientUnits="userSpaceOnUse">
<stop stop-color="#F3BE00"/>
<stop offset="1" stop-color="#FBEC65"/>
</linearGradient>
<linearGradient id="paint1_linear_3_1133" x1="-0.144142" y1="18.4774" x2="20.67" y2="6.43789" gradientUnits="userSpaceOnUse">
<stop stop-color="#F3BE00"/>
<stop offset="1" stop-color="#FBEC65"/>
</linearGradient>
<linearGradient id="paint2_linear_3_1133" x1="3.2979" y1="2.85405" x2="13.7457" y2="16.3821" gradientUnits="userSpaceOnUse">
<stop stop-color="white" stop-opacity="0.25"/>
<stop offset="1" stop-color="white" stop-opacity="0"/>
</linearGradient>
</defs>
</svg>
