<svg width="20" height="20" viewBox="0 0 12 12" fill="#232323" xmlns="http://www.w3.org/2000/svg">
<path d="M4.39425 9.51971L3.78675 10.1235C3.53226 10.374 3.18948 10.5144 2.83238 10.5144C2.47528 10.5144 2.1325 10.374 1.87801 10.1235C1.75392 10.0006 1.65542 9.85433 1.5882 9.69316C1.52098 9.53198 1.48637 9.35908 1.48637 9.18445C1.48637 9.00982 1.52098 8.83692 1.5882 8.67574C1.65542 8.51457 1.75392 8.36831 1.87801 8.24543L4.113 6.02915C4.57575 5.56939 5.44725 4.89288 6.0825 5.52289C6.15086 5.59579 6.23321 5.65416 6.32463 5.69454C6.41605 5.73491 6.51466 5.75645 6.61459 5.75787C6.71451 5.7593 6.8137 5.74058 6.90623 5.70283C6.99876 5.66508 7.08274 5.60907 7.15315 5.53815C7.22356 5.46724 7.27897 5.38286 7.31605 5.29006C7.35314 5.19726 7.37116 5.09794 7.36902 4.99803C7.36688 4.89811 7.34464 4.79965 7.30362 4.70853C7.26259 4.6174 7.20363 4.53547 7.13025 4.46762C6.05175 3.39661 4.45575 3.59461 3.06601 4.97388L0.831008 7.19092C0.566928 7.45128 0.357416 7.76169 0.214729 8.10399C0.0720429 8.44629 -0.000953829 8.8136 9.40994e-06 9.18445C-0.000911954 9.55529 0.0721038 9.9226 0.214788 10.2649C0.357472 10.6072 0.566961 10.9176 0.831008 11.178C1.36328 11.706 2.08305 12.0015 2.83276 12C3.55801 12 4.28325 11.7262 4.8345 11.178L5.44275 10.5742C5.51212 10.5056 5.56725 10.424 5.605 10.334C5.64274 10.2441 5.66235 10.1475 5.6627 10.05C5.66305 9.95243 5.64413 9.85577 5.60703 9.76554C5.56993 9.67531 5.51538 9.5933 5.4465 9.52421C5.30728 9.3846 5.11846 9.30577 4.92131 9.30493C4.72415 9.30408 4.53467 9.3813 4.39425 9.51971ZM11.1682 0.906568C10.008 -0.243951 8.3865 -0.306202 7.314 0.758815L6.55725 1.51033C6.41742 1.64917 6.33846 1.83788 6.33776 2.03493C6.33706 2.23199 6.41466 2.42126 6.5535 2.56109C6.69234 2.70093 6.88105 2.77989 7.0781 2.78059C7.27515 2.78129 7.46442 2.70369 7.60425 2.56484L8.36175 1.81408C8.91675 1.26207 9.645 1.49083 10.1212 1.96183C10.3732 2.21309 10.5127 2.54609 10.5127 2.90085C10.5127 3.2556 10.3732 3.58861 10.1212 3.83911L7.73625 6.20465C6.64575 7.28542 6.13425 6.77916 5.916 6.56241C5.84676 6.49366 5.76466 6.43922 5.67438 6.40221C5.58411 6.36519 5.48742 6.34631 5.38985 6.34666C5.29228 6.34701 5.19573 6.36657 5.10572 6.40423C5.01571 6.4419 4.934 6.49692 4.86525 6.56616C4.79651 6.6354 4.74207 6.7175 4.70505 6.80778C4.66804 6.89806 4.64916 6.99475 4.64951 7.09232C4.64986 7.18989 4.66942 7.28644 4.70708 7.37645C4.74474 7.46646 4.79976 7.54818 4.869 7.61693C5.37 8.11343 5.9415 8.35944 6.54 8.35944C7.27275 8.35944 8.0475 7.99043 8.78475 7.25917L11.1697 4.89438C11.4333 4.63363 11.6423 4.32313 11.7849 3.98091C11.9274 3.63869 12.0005 3.27156 12 2.90085C12.0007 2.52987 11.9275 2.16246 11.7847 1.82007C11.6419 1.47767 11.4323 1.16713 11.1682 0.906568Z" fill="black" fill-opacity="1"/>
</svg>
